<svg xmlns="http://www.w3.org/2000/svg" viewBox="0 0 1024 1024" style="enable-background:new 0 0 1024 1024" xml:space="preserve">
  <style>
    .st0{fill:#fff}
  </style>
  <g id="Geo">
    <path class="st0" d="M945.9 510.5c0 57 .1 113.9 0 170.9 0 12.2-.5 24.3-.9 36.5-.9 27.2-13.3 48.5-35.3 63.3-28.1 19-58.2 34.6-87.5 51.5-87.6 50.6-175.3 101.1-263 151.6-27.6 15.9-56.3 18.1-85 4.1-17.6-8.6-34.2-19.2-51.1-29-97.8-56.4-195.4-113.2-293.5-169.1-25.3-14.4-41.8-34.3-49-62.2-.8-2.9-1.2-5.8-1.2-8.8 0-138.9-.6-277.7.5-416.6.2-28.3 16.1-51 40.8-65.7 38.3-22.7 77-44.8 115.5-67C310 127.4 383.8 84.9 457.7 42.4c4.6-2.7 9.4-5.1 14.1-7.6 28-14.9 55.9-14.1 83.6.8 40.5 21.9 79.9 45.6 119.8 68.5 74.8 43 149.3 86.5 224.2 129.3 21.9 12.5 36.2 30.5 44.2 54.1 1.3 3.9 1.8 7.8 1.8 11.9v211.2c.2-.1.3-.1.5-.1z"/>
    <path class="st0" d="M511.9 214.9c-20.3 5.8-41.3 7.4-62.3 7.9-21.3.5-42.6.4-63.9.4-1.9 0-1.9 3 0 3 21.9.1 43.9.2 65.8-.4 20.6-.6 41.3-2.3 61.2-8 1.8-.5 1-3.4-.8-2.9zm40.4-17.8c53.9 2.1 107.9-3 160.4-15.2 1.9-.4 1.1-3.3-.8-2.9-52.3 12.1-106 17.1-159.6 15.1-1.9-.1-1.9 2.9 0 3z"/>
    <path class="st0" d="M560.1 213.5c48.6-10.1 96.9-21.9 144.7-35.4 1.9-.5 1.1-3.4-.8-2.9-47.8 13.5-96.1 25.3-144.7 35.4-1.9.4-1.1 3.2.8 2.9zm-3.9 17.4c52-14.7 104.8-26 158.2-34 1.9-.3 1.1-3.2-.8-2.9-53.4 8-106.3 19.3-158.2 34-1.9.5-1.1 3.4.8 2.9z"/>
    <path class="st0" d="M576.8 220.8c45.9-13.3 92.6-23.7 139.9-31.2 1.9-.3 1.1-3.2-.8-2.9-47.2 7.5-93.9 17.9-139.9 31.2-1.8.6-1 3.5.8 2.9z"/>
    <path class="st0" d="M633.6 239c2.4-19.8 7.3-39 14.6-57.5.7-1.8-2.2-2.6-2.9-.8-7.5 18.8-12.4 38.3-14.7 58.3-.3 1.9 2.7 1.9 3 0z"/>
  </g>
  <path d="M465.2 773.4c.3-222.2-.1-444.3 2-667.4 5.5 2.6 9.8 4.5 13.9 6.6 67.4 34.3 135.1 67.9 201.4 104.1 47.8 26.1 87 62.1 113.4 110.6 14.7 26.8 23.1 55.3 22.6 86.2-.3 17.9 2 35.8-1.2 53.6-14 77.2-80.6 164.5-184.5 178.3-11.2 1.5-22.4 2.8-33.7 3.4-3.9.2-5.1-1.1-5.1-5.1.1-23.9.2-47.8 0-71.7 0-3.9 1.2-5 5-5.1 17.1-.5 34.2-1.1 50.5-6.9 39.2-13.9 63.9-42.4 77.8-80.4 17.1-46.9 6-89.7-23-128.7-13-17.4-28.9-31.9-47.7-43.1-30-17.8-60.2-35.5-90.4-53.1-6-3.5-6.1-3.3-6.6 3.6-1.2 16.2-1 32.4-1 48.6-.5 199.7-.9 399.3-1.4 599 0 14.1-.3 14.4-12.4 7.8-66.4-36.1-134.8-68.6-201-105.1-40.7-22.4-75.7-51.6-102.5-89.9-16.8-24-29.1-50.1-34-79.2-2.4-13.9-1.2-28.1-2.2-42.1-4.1-58.7 19-107.3 56.5-150 36.5-41.5 83-64.3 137.9-70.1 8.7-.9 17.4-1.3 26.1-2.2 3.3-.3 4.6.6 4.5 4.1-.1 24.5-.1 49.1 0 73.6 0 3.4-1 4.5-4.4 4.1-61.9-5.9-120.5 38.1-135 107.6-7 33.4 1.6 64.9 18.8 93.8 14.7 24.8 35.1 44.4 59.9 59.2 29.8 17.8 59.7 35.5 89.6 53.2 1.8 1.1 3.3 2.7 6.2 2.7z" style="fill:#1e1e20;stroke:#fff;stroke-miterlimit:10" id="DP"/>
</svg>
