<?xml version="1.0" encoding="utf-8"?>
<!-- Generator: Adobe Illustrator 19.2.1, SVG Export Plug-In . SVG Version: 6.00 Build 0)  -->
<svg version="1.1" xmlns="http://www.w3.org/2000/svg" xmlns:xlink="http://www.w3.org/1999/xlink" x="0px" y="0px"
	 viewBox="0 0 1024 1024" style="enable-background:new 0 0 1024 1024;" xml:space="preserve">
<style type="text/css">
	.st0{fill:#FFFFFF;}
	.st1{fill:#1E1E20;stroke:#FFFFFF;stroke-miterlimit:10;}
</style>
<g id="Geo">
	<path class="st0" d="M945.9,510.5c0,57,0.1,113.9,0,170.9c0,12.2-0.5,24.3-0.9,36.5c-0.9,27.2-13.3,48.5-35.3,63.3
		c-28.1,19-58.2,34.6-87.5,51.5c-87.6,50.6-175.3,101.1-263,151.6c-27.6,15.9-56.3,18.1-85,4.1c-17.6-8.6-34.2-19.2-51.1-29
		C325.3,903,227.7,846.2,129.6,790.3c-25.3-14.4-41.8-34.3-49-62.2c-0.8-2.9-1.2-5.8-1.2-8.8c0-138.9-0.6-277.7,0.5-416.6
		c0.2-28.3,16.1-51,40.8-65.7c38.3-22.7,77-44.8,115.5-67c73.8-42.6,147.6-85.1,221.5-127.6c4.6-2.7,9.4-5.1,14.1-7.6
		c28-14.9,55.9-14.1,83.6,0.8c40.5,21.9,79.9,45.6,119.8,68.5c74.8,43,149.3,86.5,224.2,129.3c21.9,12.5,36.2,30.5,44.2,54.1
		c1.3,3.9,1.8,7.8,1.8,11.9c0,70.4,0,140.8,0,211.2C945.6,510.5,945.7,510.5,945.9,510.5z"/>
	<g>
		<g>
			<path class="st0" d="M511.9,214.9c-20.3,5.8-41.3,7.4-62.3,7.9c-21.3,0.5-42.6,0.4-63.9,0.4c-1.9,0-1.9,3,0,3
				c21.9,0.1,43.9,0.2,65.8-0.4c20.6-0.6,41.3-2.3,61.2-8C514.5,217.3,513.7,214.4,511.9,214.9L511.9,214.9z"/>
		</g>
	</g>
	<g>
		<g>
			<path class="st0" d="M552.3,197.1c53.9,2.1,107.9-3,160.4-15.2c1.9-0.4,1.1-3.3-0.8-2.9c-52.3,12.1-106,17.1-159.6,15.1
				C550.4,194,550.4,197,552.3,197.1L552.3,197.1z"/>
		</g>
	</g>
	<g>
		<g>
			<path class="st0" d="M560.1,213.5c48.6-10.1,96.9-21.9,144.7-35.4c1.9-0.5,1.1-3.4-0.8-2.9c-47.8,13.5-96.1,25.3-144.7,35.4
				C557.4,211,558.2,213.8,560.1,213.5L560.1,213.5z"/>
		</g>
	</g>
	<g>
		<g>
			<path class="st0" d="M556.2,230.9c52-14.7,104.8-26,158.2-34c1.9-0.3,1.1-3.2-0.8-2.9c-53.4,8-106.3,19.3-158.2,34
				C553.5,228.5,554.3,231.4,556.2,230.9L556.2,230.9z"/>
		</g>
	</g>
	<g>
		<g>
			<path class="st0" d="M576.8,220.8c45.9-13.3,92.6-23.7,139.9-31.2c1.9-0.3,1.1-3.2-0.8-2.9c-47.2,7.5-93.9,17.9-139.9,31.2
				C574.2,218.5,575,221.4,576.8,220.8L576.8,220.8z"/>
		</g>
	</g>
	<g>
		<g>
			<path class="st0" d="M633.6,239c2.4-19.8,7.3-39,14.6-57.5c0.7-1.8-2.2-2.6-2.9-0.8c-7.5,18.8-12.4,38.3-14.7,58.3
				C630.3,240.9,633.3,240.9,633.6,239L633.6,239z"/>
		</g>
	</g>
</g>
<g id="DP">
	<path class="st1" d="M465.2,773.4c0.3-222.2-0.1-444.3,2-667.4c5.5,2.6,9.8,4.5,13.9,6.6c67.4,34.3,135.1,67.9,201.4,104.1
		c47.8,26.1,87,62.1,113.4,110.6c14.7,26.8,23.1,55.3,22.6,86.2c-0.3,17.9,2,35.8-1.2,53.6c-14,77.2-80.6,164.5-184.5,178.3
		c-11.2,1.5-22.4,2.8-33.7,3.4c-3.9,0.2-5.1-1.1-5.1-5.1c0.1-23.9,0.2-47.8,0-71.7c0-3.9,1.2-5,5-5.1c17.1-0.5,34.2-1.1,50.5-6.9
		c39.2-13.9,63.9-42.4,77.8-80.4c17.1-46.9,6-89.7-23-128.7c-13-17.4-28.9-31.9-47.7-43.1c-30-17.8-60.2-35.5-90.4-53.1
		c-6-3.5-6.1-3.3-6.6,3.6c-1.2,16.2-1,32.4-1,48.6c-0.5,199.7-0.9,399.3-1.4,599c0,14.1-0.3,14.4-12.4,7.8
		c-66.4-36.1-134.8-68.6-201-105.1c-40.7-22.4-75.7-51.6-102.5-89.9c-16.8-24-29.1-50.1-34-79.2c-2.4-13.9-1.2-28.1-2.2-42.1
		c-4.1-58.7,19-107.3,56.5-150c36.5-41.5,83-64.3,137.9-70.1c8.7-0.9,17.4-1.3,26.1-2.2c3.3-0.3,4.6,0.6,4.5,4.1
		c-0.1,24.5-0.1,49.1,0,73.6c0,3.4-1,4.5-4.4,4.1C363.8,451,305.2,495,290.7,564.5c-7,33.4,1.6,64.9,18.8,93.8
		c14.7,24.8,35.1,44.4,59.9,59.2c29.8,17.8,59.7,35.5,89.6,53.2C460.8,771.8,462.3,773.4,465.2,773.4z"/>
</g>
</svg>
