<svg fill="none" height="32" viewBox="0 0 32 32" width="32" xmlns="http://www.w3.org/2000/svg" xmlns:xlink="http://www.w3.org/1999/xlink"><filter id="c" color-interpolation-filters="sRGB" filterUnits="userSpaceOnUse" height="10.434" width="14.889" x="3.61" y="2.362"><feFlood flood-opacity="0" result="BackgroundImageFix"/><feBlend in="SourceGraphic" in2="BackgroundImageFix" result="shape"/><feColorMatrix in="SourceAlpha" result="hardAlpha" values="0 0 0 0 0 0 0 0 0 0 0 0 0 0 0 0 0 0 127 0"/><feOffset dx="-.2" dy="-.2"/><feGaussianBlur stdDeviation=".2"/><feComposite in2="hardAlpha" k2="-1" k3="1" operator="arithmetic"/><feColorMatrix values="0 0 0 0 0.317647 0 0 0 0 0.458824 0 0 0 0 0.886275 0 0 0 1 0"/><feBlend in2="shape" result="effect1_innerShadow_18_1566"/><feColorMatrix in="SourceAlpha" result="hardAlpha" values="0 0 0 0 0 0 0 0 0 0 0 0 0 0 0 0 0 0 127 0"/><feOffset dx=".2" dy=".2"/><feGaussianBlur stdDeviation=".2"/><feComposite in2="hardAlpha" k2="-1" k3="1" operator="arithmetic"/><feColorMatrix values="0 0 0 0 0.317647 0 0 0 0 0.458824 0 0 0 0 0.886275 0 0 0 1 0"/><feBlend in2="effect1_innerShadow_18_1566" result="effect2_innerShadow_18_1566"/><feColorMatrix in="SourceAlpha" result="hardAlpha" values="0 0 0 0 0 0 0 0 0 0 0 0 0 0 0 0 0 0 127 0"/><feOffset dx="-.25" dy=".25"/><feGaussianBlur stdDeviation=".25"/><feComposite in2="hardAlpha" k2="-1" k3="1" operator="arithmetic"/><feColorMatrix values="0 0 0 0 0.372549 0 0 0 0 0.607843 0 0 0 0 0.960784 0 0 0 1 0"/><feBlend in2="effect2_innerShadow_18_1566" result="effect3_innerShadow_18_1566"/></filter><filter id="h" color-interpolation-filters="sRGB" filterUnits="userSpaceOnUse" height="10.434" width="14.889" x="13.298" y="2.362"><feFlood flood-opacity="0" result="BackgroundImageFix"/><feBlend in="SourceGraphic" in2="BackgroundImageFix" result="shape"/><feColorMatrix in="SourceAlpha" result="hardAlpha" values="0 0 0 0 0 0 0 0 0 0 0 0 0 0 0 0 0 0 127 0"/><feOffset dx="-.2" dy="-.2"/><feGaussianBlur stdDeviation=".2"/><feComposite in2="hardAlpha" k2="-1" k3="1" operator="arithmetic"/><feColorMatrix values="0 0 0 0 0.317647 0 0 0 0 0.458824 0 0 0 0 0.886275 0 0 0 1 0"/><feBlend in2="shape" result="effect1_innerShadow_18_1566"/><feColorMatrix in="SourceAlpha" result="hardAlpha" values="0 0 0 0 0 0 0 0 0 0 0 0 0 0 0 0 0 0 127 0"/><feOffset dx=".2" dy=".2"/><feGaussianBlur stdDeviation=".2"/><feComposite in2="hardAlpha" k2="-1" k3="1" operator="arithmetic"/><feColorMatrix values="0 0 0 0 0.317647 0 0 0 0 0.458824 0 0 0 0 0.886275 0 0 0 1 0"/><feBlend in2="effect1_innerShadow_18_1566" result="effect2_innerShadow_18_1566"/><feColorMatrix in="SourceAlpha" result="hardAlpha" values="0 0 0 0 0 0 0 0 0 0 0 0 0 0 0 0 0 0 127 0"/><feOffset dx="-.25" dy=".25"/><feGaussianBlur stdDeviation=".25"/><feComposite in2="hardAlpha" k2="-1" k3="1" operator="arithmetic"/><feColorMatrix values="0 0 0 0 0.372549 0 0 0 0 0.607843 0 0 0 0 0.960784 0 0 0 1 0"/><feBlend in2="effect2_innerShadow_18_1566" result="effect3_innerShadow_18_1566"/></filter><filter id="s" color-interpolation-filters="sRGB" filterUnits="userSpaceOnUse" height="9.38" width="6.48" x="12.757" y="15.492"><feFlood flood-opacity="0" result="BackgroundImageFix"/><feBlend in="SourceGraphic" in2="BackgroundImageFix" result="shape"/><feColorMatrix in="SourceAlpha" result="hardAlpha" values="0 0 0 0 0 0 0 0 0 0 0 0 0 0 0 0 0 0 127 0"/><feOffset dx="-.3" dy=".3"/><feGaussianBlur stdDeviation=".3"/><feComposite in2="hardAlpha" k2="-1" k3="1" operator="arithmetic"/><feColorMatrix values="0 0 0 0 0.286275 0 0 0 0 0.223529 0 0 0 0 0.345098 0 0 0 1 0"/><feBlend in2="shape" result="effect1_innerShadow_18_1566"/><feColorMatrix in="SourceAlpha" result="hardAlpha" values="0 0 0 0 0 0 0 0 0 0 0 0 0 0 0 0 0 0 127 0"/><feOffset dx=".2" dy="-.2"/><feGaussianBlur stdDeviation=".2"/><feComposite in2="hardAlpha" k2="-1" k3="1" operator="arithmetic"/><feColorMatrix values="0 0 0 0 0.482353 0 0 0 0 0.47451 0 0 0 0 0.490196 0 0 0 1 0"/><feBlend in2="effect1_innerShadow_18_1566" result="effect2_innerShadow_18_1566"/></filter><linearGradient id="a"><stop offset="0" stop-color="#3669d9"/><stop offset="1" stop-color="#3669d9" stop-opacity="0"/></linearGradient><radialGradient id="d" cx="0" cy="0" gradientTransform="matrix(-2.52885 -3.84673 14.36599 -9.44423 13.103 11.842)" gradientUnits="userSpaceOnUse" r="1" xlink:href="#a"/><linearGradient id="b"><stop offset="0" stop-color="#3d89ec"/><stop offset="1" stop-color="#3d89ec" stop-opacity="0"/></linearGradient><linearGradient id="f" gradientUnits="userSpaceOnUse" x1="6.582" x2="8.377" xlink:href="#b" y1="2.023" y2="6.493"/><radialGradient id="i" cx="0" cy="0" gradientTransform="matrix(1.6486 -2.5645 5.62524 3.61622 18.744 11.842)" gradientUnits="userSpaceOnUse" r="1" xlink:href="#a"/><linearGradient id="j" gradientUnits="userSpaceOnUse" x1="25.265" x2="23.47" xlink:href="#b" y1="2.023" y2="6.493"/><linearGradient id="k" gradientUnits="userSpaceOnUse" x1="15.749" x2="16.086" y1="7.063" y2="7.25"><stop offset="0" stop-color="#1a6dd8"/><stop offset="1" stop-color="#1a6dd8" stop-opacity="0"/></linearGradient><linearGradient id="l" gradientUnits="userSpaceOnUse" x1="23.797" x2="14.45" y1="14.938" y2="23.484"><stop offset="0" stop-color="#efeaf6"/><stop offset="1" stop-color="#b5a8c3"/></linearGradient><linearGradient id="m" gradientUnits="userSpaceOnUse" x1="12.536" x2="14.802" y1="30.668" y2="17.527"><stop offset="0" stop-color="#d0a9f4"/><stop offset="1" stop-color="#d0a9f4" stop-opacity="0"/></linearGradient><linearGradient id="n" gradientUnits="userSpaceOnUse" x1="23.963" x2="16.047" y1="18.613" y2="18.613"><stop offset="0" stop-color="#d3c6e2"/><stop offset="1" stop-color="#d6c6e8"/></linearGradient><linearGradient id="o" gradientUnits="userSpaceOnUse" x1="11.286" x2="23.909" y1="22.103" y2="18.283"><stop offset="0" stop-color="#e0d3ef"/><stop offset="1" stop-color="#c1b0d4"/></linearGradient><radialGradient id="p" cx="0" cy="0" gradientTransform="matrix(-10.46312 4.51826 -3.85005 -8.91571 18.925 18.982)" gradientUnits="userSpaceOnUse" r="1"><stop offset=".837" stop-color="#f6ecfe" stop-opacity="0"/><stop offset="1" stop-color="#f6ecfe"/></radialGradient><radialGradient id="q" cx="0" cy="0" gradientTransform="matrix(6.73496 -5.91551 5.68004 6.46687 15.078 21.031)" gradientUnits="userSpaceOnUse" r="1"><stop offset=".91" stop-color="#b396cf" stop-opacity="0"/><stop offset=".992" stop-color="#b796d5"/></radialGradient><radialGradient id="r" cx="0" cy="0" gradientTransform="matrix(6.65625 5.1875 -5.87867 7.54311 15.828 19.5)" gradientUnits="userSpaceOnUse" r="1"><stop offset=".926" stop-color="#ab9cbb" stop-opacity="0"/><stop offset="1" stop-color="#ab9cbb"/></radialGradient><g filter="url(#c)"><path d="m14.035 3.552 4.264 7.284-6.016 1.71C8.128 11.173 5.681 8.53 4.205 5.814c-.622-1.146-.617-3.25 1.856-3.25h6.248a2 2 0 0 1 1.726.989" fill="#4686ec"/><path d="m14.035 3.552 4.264 7.284-6.016 1.71C8.128 11.173 5.681 8.53 4.205 5.814c-.622-1.146-.617-3.25 1.856-3.25h6.248a2 2 0 0 1 1.726.989" fill="url(#d)"/><path d="m14.035 3.552 4.264 7.284-6.016 1.71C8.128 11.173 5.681 8.53 4.205 5.814c-.622-1.146-.617-3.25 1.856-3.25h6.248a2 2 0 0 1 1.726.989" fill="url(#f)"/></g><g filter="url(#h)"><path d="m17.812 3.552-4.264 7.284 6.016 1.71c4.155-1.374 6.602-4.017 8.078-6.733.622-1.146.617-3.25-1.856-3.25h-6.248a2 2 0 0 0-1.726.989" fill="#4686ec"/><path d="m17.812 3.552-4.264 7.284 6.016 1.71c4.155-1.374 6.602-4.017 8.078-6.733.622-1.146.617-3.25-1.856-3.25h-6.248a2 2 0 0 0-1.726.989" fill="url(#i)"/><path d="m17.812 3.552-4.264 7.284 6.016 1.71c4.155-1.374 6.602-4.017 8.078-6.733.622-1.146.617-3.25-1.856-3.25h-6.248a2 2 0 0 0-1.726.989" fill="url(#j)"/></g><path d="m17.812 3.552-4.264 7.284 6.016 1.71c4.155-1.374 6.602-4.017 8.078-6.733.622-1.146.617-3.25-1.856-3.25h-6.248a2 2 0 0 0-1.726.989" fill="url(#k)"/><circle cx="16.047" cy="20.132" fill="url(#l)" r="10.048"/><circle cx="16.047" cy="20.132" fill="url(#m)" r="10.048"/><circle cx="16.047" cy="20.132" fill="url(#n)" r="8.688"/><circle cx="16.047" cy="20.132" fill="url(#o)" r="7.585"/><circle cx="16.047" cy="20.132" fill="url(#p)" r="7.585"/><circle cx="16.047" cy="20.132" fill="url(#q)" r="7.585"/><circle cx="16.047" cy="20.132" fill="url(#r)" r="7.585"/><g filter="url(#s)"><path d="M18.037 24.572h-3.97a1 1 0 0 1-.91-.58 1 1 0 0 1 .13-1.07l3.3-4.05c.26-.32.14-.66.1-.76a.64.64 0 0 0-.58-.4h-.05c-.32 0-.61.15-.8.41-.32.45-.95.56-1.41.24s-.56-.95-.24-1.41c.56-.79 1.47-1.26 2.44-1.26h.13c1.02.05 1.91.66 2.33 1.59.43.96.29 2.05-.37 2.86l-1.95 2.4h1.84c.56 0 1.01.45 1.01 1.01s-.44 1.02-1 1.02" fill="#6a6372"/></g></svg>